<?xml version="1.0" encoding="UTF-8"?>
<svg version="1.1" xmlns="http://www.w3.org/2000/svg" width="256" height="256">
<path d="M0 0 C1.40765625 0.00580078 1.40765625 0.00580078 2.84375 0.01171875 C5.55492518 0.31871947 7.21624436 0.8436299 9.5 2.3125 C10.82229189 4.95708379 10.59677194 6.99011301 10.5625 9.9375 C10.55347656 10.94039062 10.54445313 11.94328125 10.53515625 12.9765625 C10.52355469 13.74742188 10.51195312 14.51828125 10.5 15.3125 C11.758125 15.539375 13.01625 15.76625 14.3125 16 C20.08879146 17.26011454 25.21332842 19.72351317 30.5 22.3125 C31.01949219 21.79558594 31.53898437 21.27867188 32.07421875 20.74609375 C32.77160156 20.08738281 33.46898437 19.42867187 34.1875 18.75 C34.87199219 18.08871094 35.55648437 17.42742187 36.26171875 16.74609375 C38.5 15.3125 38.5 15.3125 41.00390625 15.3671875 C45.56747566 17.09548765 48.50900147 20.55475588 51.5 24.3125 C52.8125 27.5 52.8125 27.5 52.5 30.3125 C50.1875 33 50.1875 33 47.5 35.3125 C46.84 36.3025 46.18 37.2925 45.5 38.3125 C45.92152344 39.09753906 46.34304687 39.88257813 46.77734375 40.69140625 C52.21880492 51.12620826 52.21880492 51.12620826 52.5 57.3125 C53.24765625 57.26609375 53.9953125 57.2196875 54.765625 57.171875 C56.24289063 57.11773437 56.24289063 57.11773437 57.75 57.0625 C58.72453125 57.01609375 59.6990625 56.9696875 60.703125 56.921875 C63.5 57.3125 63.5 57.3125 65.82421875 58.95703125 C68.92242533 63.31185308 68.27296076 68.20817357 67.5 73.3125 C65.625 76.5625 65.625 76.5625 62.5 78.3125 C59.12144905 78.68904079 55.88209303 78.60802269 52.5 78.3125 C52.40203125 78.85777344 52.3040625 79.40304688 52.203125 79.96484375 C51.16636011 85.19335633 49.61469625 89.55918411 47.109375 94.26953125 C46.27372145 96.33619266 46.27372145 96.33619266 47.25390625 98.42578125 C48.54127415 100.48436367 48.54127415 100.48436367 50.6875 102.6875 C52.5 105.3125 52.5 105.3125 52.75 108.125 C50.84279366 112.98837618 47.65394172 116.1989562 43.5 119.3125 C40.375 120.125 40.375 120.125 37.5 119.3125 C36.489375 118.466875 35.47875 117.62125 34.4375 116.75 C31.84194214 114.01775303 31.84194214 114.01775303 29.23046875 114.5 C24.85871782 115.80089298 20.68683904 117.5471062 16.4609375 119.25390625 C13.5 120.3125 13.5 120.3125 10.5 120.3125 C10.55220703 121.45138672 10.55220703 121.45138672 10.60546875 122.61328125 C10.63253906 123.60714844 10.65960938 124.60101563 10.6875 125.625 C10.73970703 127.10419922 10.73970703 127.10419922 10.79296875 128.61328125 C10.5 131.3125 10.5 131.3125 9.42578125 133.14453125 C6.47717732 134.93283262 3.91214841 134.70882593 0.5 134.6875 C-0.7375 134.69523438 -1.975 134.70296875 -3.25 134.7109375 C-6.5 134.3125 -6.5 134.3125 -8.39453125 133.0078125 C-10.64317883 129.55935649 -10.5 125.3193643 -10.5 121.3125 C-13.71379214 120.04631422 -16.93231535 118.79791677 -20.1640625 117.578125 C-22.02595649 116.87173899 -23.88223745 116.14771919 -25.7109375 115.359375 C-27.61023178 114.53854455 -27.61023178 114.53854455 -30.5 114.3125 C-32.55727132 115.9079349 -34.55874656 117.57776288 -36.5 119.3125 C-39.375 120.0625 -39.375 120.0625 -42.5 119.3125 C-45.9730343 116.84363952 -49.56879668 114.17490664 -51.5 110.3125 C-51.9375 107.5625 -51.9375 107.5625 -51.5 104.3125 C-49.69215427 101.98285624 -47.73782813 100.27059961 -45.5 98.3125 C-45.77585937 97.62542969 -46.05171875 96.93835938 -46.3359375 96.23046875 C-47.61136486 93.03334044 -48.87440637 89.83193162 -50.125 86.625 C-50.79402344 84.91763672 -50.79402344 84.91763672 -51.4765625 83.17578125 C-52.5 80.3125 -52.5 80.3125 -52.5 78.3125 C-53.10328125 78.33570313 -53.7065625 78.35890625 -54.328125 78.3828125 C-55.12734375 78.40085937 -55.9265625 78.41890625 -56.75 78.4375 C-57.53890625 78.46070313 -58.3278125 78.48390625 -59.140625 78.5078125 C-61.74614317 78.29212391 -63.29986977 77.7046178 -65.5 76.3125 C-66.97694068 73.35861864 -66.70930797 70.66088118 -66.75 67.375 C-66.77578125 66.12847656 -66.8015625 64.88195312 -66.828125 63.59765625 C-66.5 60.3125 -66.5 60.3125 -65.33984375 58.4140625 C-62.81803772 56.90419137 -60.73327204 56.79681012 -57.8125 56.625 C-56.81863281 56.55925781 -55.82476562 56.49351563 -54.80078125 56.42578125 C-53.66189453 56.36970703 -53.66189453 56.36970703 -52.5 56.3125 C-52.24605469 55.50425781 -51.99210937 54.69601563 -51.73046875 53.86328125 C-51.21419922 52.26033203 -51.21419922 52.26033203 -50.6875 50.625 C-50.35105469 49.56925781 -50.01460937 48.51351562 -49.66796875 47.42578125 C-48.55319312 44.45428902 -47.14869882 42.00994134 -45.5 39.3125 C-45.3509288 37.2379644 -45.3509288 37.2379644 -46.5 35.3125 C-47.345625 34.508125 -48.19125 33.70375 -49.0625 32.875 C-51.5 30.3125 -51.5 30.3125 -51.94140625 27.98828125 C-51.31707964 24.20364649 -49.5554592 22.63377312 -46.875 19.9375 C-46.01648438 19.04289062 -45.15796875 18.14828125 -44.2734375 17.2265625 C-41.5 15.3125 -41.5 15.3125 -38.32421875 15.359375 C-35.5 16.3125 -35.5 16.3125 -32.9375 18.9375 C-32.133125 19.72125 -31.32875 20.505 -30.5 21.3125 C-26.51880185 20.96303166 -23.03219196 19.41945325 -19.375 17.875 C-18.34117188 17.44316406 -17.30734375 17.01132813 -16.2421875 16.56640625 C-13.37164227 15.3413664 -13.37164227 15.3413664 -10.5 13.3125 C-10.08476016 10.76423864 -10.06088693 8.30198183 -10.00390625 5.72265625 C-9.5 3.3125 -9.5 3.3125 -7.80859375 1.515625 C-5.01150563 0.05792087 -3.14229408 -0.05611239 0 0 Z M-22.8359375 50.9375 C-27.06213919 56.40957618 -29.03071574 62.05039967 -28.8125 69.07421875 C-27.72480817 76.8648115 -24.56678935 84.19239646 -18.5 89.3125 C-10.31377913 94.77947185 -3.31913463 96.17925842 6.5 95.3125 C13.86577612 93.40498231 20.75125906 88.63421987 24.8515625 82.1875 C28.39055206 75.26228302 29.4371095 69.08232048 28.5 61.3125 C25.56232798 52.40192289 20.71478168 45.99631516 12.66796875 41.2265625 C-0.6408012 35.11853756 -14.04054171 40.23900687 -22.8359375 50.9375 Z " fill="#0EC3CB" transform="translate(124.5,61.6875)"/>
<path d="M0 0 C-1.90281165 7.69470323 -4.99287343 14.17880719 -9 21 C-10.01578125 20.66226563 -11.0315625 20.32453125 -12.078125 19.9765625 C-36.59130189 11.96511402 -61.38996755 11.25475601 -85 23 C-103.80298187 34.29499965 -119.96147713 51.16995045 -126.05859375 72.74609375 C-127.32295607 78.46294731 -128.19378845 84.20260601 -129 90 C-131.91697011 89.85895309 -134.8334802 89.71235186 -137.75 89.5625 C-138.575 89.52318359 -139.4 89.48386719 -140.25 89.44335938 C-141.04921875 89.40146484 -141.8484375 89.35957031 -142.671875 89.31640625 C-143.4050293 89.27974854 -144.13818359 89.24309082 -144.89355469 89.20532227 C-147.01177605 88.99885215 -148.9519456 88.56867914 -151 88 C-150.63734134 68.74612184 -142.99662359 49.64342692 -132 34 C-131.47921875 33.24332031 -130.9584375 32.48664063 -130.421875 31.70703125 C-114.89253428 10.41072662 -88.6433959 -4.34260485 -63 -9 C-42.14773614 -12.09231969 -18.85903441 -10.1047172 0 0 Z " fill="#13C4CC" transform="translate(170,33)"/>
<path d="M0 0 C5.91413421 28.27337711 -2.81520102 56.47918919 -17.78515625 80.2421875 C-24.71938861 90.79564855 -33.31461367 99.22586829 -44 106 C-44.63599121 106.40347656 -45.27198242 106.80695313 -45.92724609 107.22265625 C-61.96778032 117.29260981 -77.76976852 124 -97 124 C-97.66 117.07 -98.32 110.14 -99 103 C-94.27344322 101.64955521 -89.57423327 100.38686476 -84.8125 99.1875 C-61.70863915 93.05120589 -44.44467136 79.42263726 -32 59 C-21.82988499 40.90217841 -21.3918201 23.28279951 -22 3 C-18.71054718 2.30160332 -15.41816726 1.6181478 -12.125 0.9375 C-11.18785156 0.73833984 -10.25070313 0.53917969 -9.28515625 0.33398438 C-8.38925781 0.15029297 -7.49335938 -0.03339844 -6.5703125 -0.22265625 C-5.74289551 -0.39547119 -4.91547852 -0.56828613 -4.06298828 -0.74633789 C-2 -1 -2 -1 0 0 Z " fill="#12C4CC" transform="translate(230,111)"/>
<path d="M0 0 C1.64966716 3.75177469 2.48200235 7.28311409 3.1875 11.3125 C7.4179775 31.43357706 18.99397887 50.03750988 36.13012695 61.64038086 C49.32192355 70.19553627 62.89195307 74.13952116 78 78 C77.86142159 81.12536637 77.71290431 84.25018217 77.5625 87.375 C77.52318359 88.26445312 77.48386719 89.15390625 77.44335938 90.0703125 C77.40146484 90.92109375 77.35957031 91.771875 77.31640625 92.6484375 C77.27974854 93.43395996 77.24309082 94.21948242 77.20532227 95.02880859 C77 97 77 97 76 99 C69.61878272 99.20257833 64.15150458 98.6719075 58 97 C57.18329834 96.77997314 56.36659668 96.55994629 55.52514648 96.33325195 C26.84832614 88.16953507 4.38108169 68.89173509 -10.06982422 43.08984375 C-16.92426683 30.11886889 -20.50357827 16.71890424 -21 2 C-14.36921723 -0.21026092 -6.94880797 -0.15441795 0 0 Z " fill="#16C5CC" transform="translate(40,136)"/>
<path d="M0 0 C9.52230034 1.58705006 19.83094013 13.32575115 25.29833984 20.76708984 C30.2353294 27.94665665 34.44595223 35.51171647 38.1875 43.375 C38.49131592 44.01139404 38.79513184 44.64778809 39.1081543 45.3034668 C39.80626483 46.84006764 40.4125079 48.41780105 41 50 C40 52 40 52 38.26586914 52.77783203 C37.52973389 53.01872559 36.79359863 53.25961914 36.03515625 53.5078125 C34.83536133 53.90419922 34.83536133 53.90419922 33.61132812 54.30859375 C32.77021484 54.57800781 31.92910156 54.84742188 31.0625 55.125 C30.22525391 55.40214844 29.38800781 55.67929688 28.52539062 55.96484375 C22.29460437 58 22.29460437 58 20 58 C19.443125 56.88882813 18.88625 55.77765625 18.3125 54.6328125 C10.98648372 40.25259326 2.1390859 27.74835406 -11 18 C-9.48103632 13.56829827 -7.07360191 9.96975924 -4.375 6.1875 C-3.95476562 5.59001953 -3.53453125 4.99253906 -3.1015625 4.37695312 C-2.07220272 2.91479435 -1.0367177 1.45695101 0 0 Z " fill="#0FC3CB" transform="translate(184,43)"/>
<path d="M0 0 C0.99 0.66 1.98 1.32 3 2 C3.99 1.34 4.98 0.68 6 0 C6.33 0.99 6.66 1.98 7 3 C7.99 3 8.98 3 10 3 C10 3.66 10 4.32 10 5 C10.66 5.33 11.32 5.66 12 6 C10.2097939 6.67057887 8.41778511 7.3363469 6.625 8 C5.62726563 8.37125 4.62953125 8.7425 3.6015625 9.125 C1 10 1 10 -1 10 C-2.06775224 8.03533587 -3.06553465 6.03144641 -4 4 C-3.67 3.34 -3.34 2.68 -3 2 C-2.34 2.33 -1.68 2.66 -1 3 C-0.67 2.01 -0.34 1.02 0 0 Z " fill="#11C4CA" transform="translate(205,91)"/>
<path d="M0 0 C0.66 0.33 1.32 0.66 2 1 C1.8864371 2.64666203 1.75882619 4.29236082 1.625 5.9375 C1.55539063 6.85402344 1.48578125 7.77054687 1.4140625 8.71484375 C1.27742188 9.46894531 1.14078125 10.22304687 1 11 C-1.00032373 12.00016187 -2.83125748 12.49396008 -5 13 C-7.15502531 9.76746204 -7.46856135 8.74849077 -7 5 C-5.13817059 2.48653029 -2.9041083 1.12417096 0 0 Z " fill="#00BEC7" transform="translate(80,82)"/>
<path d="M0 0 C0.33 0.66 0.66 1.32 1 2 C1.99 2.33 2.98 2.66 4 3 C2.625 5.5 2.625 5.5 1 8 C0.34 8 -0.32 8 -1 8 C-1.33 8.99 -1.66 9.98 -2 11 C-3.33333333 11.66666667 -4.66666667 12.33333333 -6 13 C-6.33 13.99 -6.66 14.98 -7 16 C-6.34 16.99 -5.68 17.98 -5 19 C-6.9375 18.1875 -6.9375 18.1875 -9 17 C-9.33 16.01 -9.66 15.02 -10 14 C-8.43152656 11.48164732 -6.84365137 9.17081064 -5.0625 6.8125 C-4.58103516 6.15830078 -4.09957031 5.50410156 -3.60351562 4.83007812 C-2.41153616 3.21323469 -1.20693447 1.60571072 0 0 Z " fill="#54D2D9" transform="translate(183,45)"/>
<path d="M0 0 C2.16874252 0.50603992 3.99967627 0.99983813 6 2 C5.92303847 5.23238414 5.62561345 7.33227795 3.375 9.734375 C1.62229929 11.21851673 -0.15079362 12.63844334 -2 14 C-2.625 12.1875 -2.625 12.1875 -3 10 C-2.34 9.01 -1.68 8.02 -1 7 C-0.34 7 0.32 7 1 7 C0.67 4.69 0.34 2.38 0 0 Z " fill="#2FC8CF" transform="translate(171,165)"/>
<path d="M0 0 C0.33 0.66 0.66 1.32 1 2 C1.99 2.33 2.98 2.66 4 3 C3.01 3 2.02 3 1 3 C1.05220703 4.13888672 1.05220703 4.13888672 1.10546875 5.30078125 C1.13253906 6.29464844 1.15960938 7.28851563 1.1875 8.3125 C1.23970703 9.79169922 1.23970703 9.79169922 1.29296875 11.30078125 C1 14 1 14 -0.0625 15.84375 C-3.06801682 17.63736487 -5.73443178 17.28253857 -9.1875 17.1875 C-11.09595703 17.14689453 -11.09595703 17.14689453 -13.04296875 17.10546875 C-14.01878906 17.07066406 -14.99460937 17.03585938 -16 17 C-16 16.67 -16 16.34 -16 16 C-12.7 16 -9.4 16 -6 16 C-5.67 14.68 -5.34 13.36 -5 12 C-4.01 11.34 -3.02 10.68 -2 10 C-1.67 10.66 -1.34 11.32 -1 12 C-0.67 9.03 -0.34 6.06 0 3 C-0.66 2.67 -1.32 2.34 -2 2 C-1.34 1.34 -0.68 0.68 0 0 Z " fill="#66DBDD" transform="translate(134,179)"/>
<path d="M0 0 C0.3669579 6.48292295 0.3669579 6.48292295 -1.375 8.9375 C-3 10 -3 10 -5 10 C-6.625 7.5 -6.625 7.5 -8 5 C-3.16129032 0 -3.16129032 0 0 0 Z " fill="#05BFC8" transform="translate(183,55)"/>
<path d="M0 0 C0.33 1.32 0.66 2.64 1 4 C0.01 4.33 -0.98 4.66 -2 5 C-2.33 5.66 -2.66 6.32 -3 7 C-3.61875 6.505 -4.2375 6.01 -4.875 5.5 C-6.83880904 3.80777227 -6.83880904 3.80777227 -9 4 C-9.33 4.66 -9.66 5.32 -10 6 C-10.33 4.68 -10.66 3.36 -11 2 C-7.12315913 0.80712589 -4.08378077 0 0 0 Z " fill="#03BEC4" transform="translate(151,211)"/>
<path d="M0 0 C0.33 0 0.66 0 1 0 C1.76595745 10.67234043 1.76595745 10.67234043 -0.875 15.25 C-5.27216577 17.71241283 -9.07152291 17.43064363 -14 17 C-14.33 17.99 -14.66 18.98 -15 20 C-15 18.68 -15 17.36 -15 16 C-11.7 16 -8.4 16 -5 16 C-5 15.01 -5 14.02 -5 13 C-3.35 12.34 -1.7 11.68 0 11 C0 7.37 0 3.74 0 0 Z " fill="#A9E8E9" transform="translate(191,123)"/>
<path d="M0 0 C0 1.65 0 3.3 0 5 C1.32 5.33 2.64 5.66 4 6 C0.3986159 7.20046137 -0.14967034 6.73287623 -3.4375 5.125 C-6.2849286 3.74705655 -8.90160864 2.66343688 -12 2 C-2.28571429 0 -2.28571429 0 0 0 Z " fill="#78DBE0" transform="translate(104,173)"/>
<path d="M0 0 C0.33 0.66 0.66 1.32 1 2 C0.34 2 -0.32 2 -1 2 C-1.33 2.99 -1.66 3.98 -2 5 C-3.98 5.33 -5.96 5.66 -8 6 C-8.33 4.35 -8.66 2.7 -9 1 C-5.92677456 0.08941469 -3.19902639 -0.08886184 0 0 Z " fill="#01C0C7" transform="translate(115,98)"/>
<path d="M0 0 C1 3 1 3 0.00390625 5.48046875 C-0.47175781 6.37378906 -0.94742188 7.26710938 -1.4375 8.1875 C-1.91058594 9.08855469 -2.38367188 9.98960938 -2.87109375 10.91796875 C-3.24363281 11.60503906 -3.61617187 12.29210938 -4 13 C-6 10 -6 10 -6 8 C-5.01 8 -4.02 8 -3 8 C-3 7.34 -3 6.68 -3 6 C-3.66 5.67 -4.32 5.34 -5 5 C-3.35 3.35 -1.7 1.7 0 0 Z " fill="#61D5DA" transform="translate(167,38)"/>
<path d="M0 0 C0.66 0.99 1.32 1.98 2 3 C2.66 2.34 3.32 1.68 4 1 C4.33 2.98 4.66 4.96 5 7 C0.94718288 5.77472971 -2.44360764 4.30119506 -6 2 C-2.25 0 -2.25 0 0 0 Z " fill="#61D7DD" transform="translate(76,219)"/>
<path d="M0 0 C0 4.01446455 -1.01130918 5.9856289 -3.8046875 8.8515625 C-4.48789063 9.43679687 -5.17109375 10.02203125 -5.875 10.625 C-6.55304688 11.21539062 -7.23109375 11.80578125 -7.9296875 12.4140625 C-9.88666469 13.91318087 -11.76048537 14.98569068 -14 16 C-9.40525596 10.60117576 -4.72323727 5.28666913 0 0 Z " fill="#ACE9EC" transform="translate(192,179)"/>
<path d="M0 0 C1.875 0.25 1.875 0.25 4 1 C5.25 3.0625 5.25 3.0625 6 5 C4.25 6.125 4.25 6.125 2 7 C-0.25 6.125 -0.25 6.125 -2 5 C-1.34 3.35 -0.68 1.7 0 0 Z " fill="#00BFCA" transform="translate(110,155)"/>
<path d="M0 0 C0.99 0.33 1.98 0.66 3 1 C4.125 8.625 4.125 8.625 3 12 C2.34 11.67 1.68 11.34 1 11 C0.5859375 8.49609375 0.5859375 8.49609375 0.375 5.4375 C0.30023437 4.42558594 0.22546875 3.41367188 0.1484375 2.37109375 C0.09945313 1.58863281 0.05046875 0.80617187 0 0 Z " fill="#03BDC5" transform="translate(20,139)"/>
<path d="M0 0 C0 0.66 0 1.32 0 2 C-0.61875 2.28875 -1.2375 2.5775 -1.875 2.875 C-4.13325765 3.93720042 -4.13325765 3.93720042 -6 6 C-6.66 6 -7.32 6 -8 6 C-8 4.35 -8 2.7 -8 1 C-3.375 -1.125 -3.375 -1.125 0 0 Z " fill="#00C0C9" transform="translate(82,166)"/>
<path d="M0 0 C2 3 2 3 3 6 C1.02 6.99 1.02 6.99 -1 8 C-1 7.34 -1 6.68 -1 6 C-2.98 6.99 -2.98 6.99 -5 8 C-3.8141763 4.62496331 -2.72426311 2.35277269 0 0 Z " fill="#4FD3D7" transform="translate(45,58)"/>
<path d="M0 0 C2.475 0.99 2.475 0.99 5 2 C5 2.66 5 3.32 5 4 C0.05 5.485 0.05 5.485 -5 7 C-5 6.34 -5 5.68 -5 5 C-3.68 5 -2.36 5 -1 5 C-1.33 4.01 -1.66 3.02 -2 2 C-1.34 1.34 -0.68 0.68 0 0 Z " fill="#4BCDD4" transform="translate(209,94)"/>
<path d="M0 0 C-1.0625 1.5 -1.0625 1.5 -3 3 C-6.6875 3.1875 -6.6875 3.1875 -10 3 C-10.33 2.34 -10.66 1.68 -11 1 C-7.2297564 -1.56376565 -4.32597804 -0.83191885 0 0 Z " fill="#03BDCB" transform="translate(98,30)"/>
<path d="M0 0 C2.1385485 2.1385485 2.42655063 3.13275314 3 6 C-1.625 8.125 -1.625 8.125 -5 7 C-4.34 5.35 -3.68 3.7 -3 2 C-2.34 2.33 -1.68 2.66 -1 3 C-1 3.66 -1 4.32 -1 5 C-0.34 5.33 0.32 5.66 1 6 C0.67 4.02 0.34 2.04 0 0 Z " fill="#6DD9DE" transform="translate(222,88)"/>
<path d="M0 0 C0.66 0.99 1.32 1.98 2 3 C1.4375 4.875 1.4375 4.875 0 7 C-3.625 8.25 -3.625 8.25 -7 9 C-6.02180976 7.68677212 -5.0424189 6.37443848 -4.0625 5.0625 C-3.51722656 4.33160156 -2.97195312 3.60070312 -2.41015625 2.84765625 C-1 1 -1 1 0 0 Z " fill="#6AD9DA" transform="translate(149,143)"/>
<path d="M0 0 C1.20272819 2.40545638 1.10071472 3.94996953 1.0625 6.625 C1.05347656 7.44226563 1.04445313 8.25953125 1.03515625 9.1015625 C1.02355469 9.72804688 1.01195313 10.35453125 1 11 C0.01 10.67 -0.98 10.34 -2 10 C-2.6875 6.6875 -2.6875 6.6875 -3 3 C-1.5625 1.0625 -1.5625 1.0625 0 0 Z " fill="#6BD6DE" transform="translate(76,84)"/>
<path d="M0 0 C2.46800047 1.15173355 4.04783565 2.04783565 6 4 C6.99 4 7.98 4 9 4 C9.33 5.98 9.66 7.96 10 10 C2.51708428 3.84965831 2.51708428 3.84965831 0 0 Z " fill="#84DCE2" transform="translate(181,67)"/>
<path d="M0 0 C1.4540625 0.0309375 1.4540625 0.0309375 2.9375 0.0625 C1.6175 0.3925 0.2975 0.7225 -1.0625 1.0625 C-1.3925 5.3525 -1.7225 9.6425 -2.0625 14.0625 C-2.3925 14.0625 -2.7225 14.0625 -3.0625 14.0625 C-3.25643875 11.91723901 -3.44248676 9.77126323 -3.625 7.625 C-3.78162109 5.83255859 -3.78162109 5.83255859 -3.94140625 4.00390625 C-3.98136719 3.03324219 -4.02132812 2.06257812 -4.0625 1.0625 C-3.0625 0.0625 -3.0625 0.0625 0 0 Z " fill="#B6EBEB" transform="translate(135.0625,212.9375)"/>
<path d="M0 0 C0.66 0 1.32 0 2 0 C2.66 2.31 3.32 4.62 4 7 C2.02 7 0.04 7 -2 7 C-1.34 4.69 -0.68 2.38 0 0 Z " fill="#00BFC5" transform="translate(54,179)"/>
<path d="M0 0 C0.66 1.32 1.32 2.64 2 4 C0.35 5.32 -1.3 6.64 -3 8 C-3.75 6.25 -3.75 6.25 -4 4 C-2.0625 1.75 -2.0625 1.75 0 0 Z " fill="#3FCFD6" transform="translate(172,171)"/>
<path d="M0 0 C1.1875 1.625 1.1875 1.625 2 4 C0.8125 7.1875 0.8125 7.1875 -1 10 C-1.99 10.33 -2.98 10.66 -4 11 C-2.7874262 7.27566618 -1.49140021 3.62197194 0 0 Z " fill="#71D9DB" transform="translate(204,157)"/>
<path d="M0 0 C1 3 1 3 1 6 C0.34 6 -0.32 6 -1 6 C-1.33 7.32 -1.66 8.64 -2 10 C-2.66 10 -3.32 10 -4 10 C-3.43454163 6.04179141 -2.19097652 3.3340947 0 0 Z " fill="#5DD6D7" transform="translate(79,101)"/>
<path d="M0 0 C0.99 0.33 1.98 0.66 3 1 C2.67 2.98 2.34 4.96 2 7 C1.01 7 0.02 7 -1 7 C-1.33 5.68 -1.66 4.36 -2 3 C-1.34 3 -0.68 3 0 3 C0 2.01 0 1.02 0 0 Z " fill="#55D2D7" transform="translate(174,87)"/>
<path d="M0 0 C0.33 0.66 0.66 1.32 1 2 C1.99 2.33 2.98 2.66 4 3 C3.01 4.32 2.02 5.64 1 7 C-0.32 6.67 -1.64 6.34 -3 6 C-1.125 1.125 -1.125 1.125 0 0 Z " fill="#3BCED8" transform="translate(183,45)"/>
<path d="M0 0 C4.86896303 0.59619955 9.32790951 1.56976822 14 3 C14 3.33 14 3.66 14 4 C12.02 4.33 10.04 4.66 8 5 C8 4.34 8 3.68 8 3 C6.68 3.33 5.36 3.66 4 4 C3.67 3.01 3.34 2.02 3 1 C2.01 0.67 1.02 0.34 0 0 Z " fill="#89DEE3" transform="translate(147,26)"/>
<path d="M0 0 C0.66 0 1.32 0 2 0 C4 3 4 3 3.625 5.6875 C3.41875 6.450625 3.2125 7.21375 3 8 C0.52557871 5.84832931 -0.56238367 4.28212246 -1 1 C-0.67 0.67 -0.34 0.34 0 0 Z " fill="#52D3DD" transform="translate(30,174)"/>
<path d="M0 0 C1.5 1.3125 1.5 1.3125 3 3 C3 3.99 3 4.98 3 6 C3.66 6 4.32 6 5 6 C5 7.65 5 9.3 5 11 C1.7089159 7.39042389 0.45336079 4.87362847 0 0 Z " fill="#5CD1D5" transform="translate(196,82)"/>
<path d="M0 0 C1.98 0.66 3.96 1.32 6 2 C6 2.66 6 3.32 6 4 C2.98968256 4.93423645 2.13349732 5.04449911 -1 4 C-0.67 2.68 -0.34 1.36 0 0 Z " fill="#00C2CA" transform="translate(99,212)"/>
<path d="M0 0 C-1.375 2 -1.375 2 -3 4 C-3.66 4 -4.32 4 -5 4 C-5 3.34 -5 2.68 -5 2 C-6.32 1.67 -7.64 1.34 -9 1 C-3.375 -1.125 -3.375 -1.125 0 0 Z " fill="#72DBDF" transform="translate(156,209)"/>
<path d="M0 0 C-2.70188004 1.80125336 -4.93057703 3.00243753 -8 4 C-8.99 3.67 -9.98 3.34 -11 3 C-10.34 3 -9.68 3 -9 3 C-9 2.34 -9 1.68 -9 1 C-5.64919071 -1.10976881 -3.77897651 -1.0497157 0 0 Z " fill="#86E1E6" transform="translate(167,227)"/>
<path d="M0 0 C0.33 0 0.66 0 1 0 C1 1.98 1 3.96 1 6 C1.99 6.33 2.98 6.66 4 7 C4 8.65 4 10.3 4 12 C3.01 12 2.02 12 1 12 C0.01751476 7.9472484 -0.08159574 4.16138263 0 0 Z " fill="#76DADF" transform="translate(20,144)"/>
<path d="M0 0 C1.65 0 3.3 0 5 0 C4.67 2.31 4.34 4.62 4 7 C3.01 7.33 2.02 7.66 1 8 C0.67 5.36 0.34 2.72 0 0 Z " fill="#01BFC1" transform="translate(213,114)"/>
<path d="M0 0 C0.66 0.33 1.32 0.66 2 1 C1.67 2.32 1.34 3.64 1 5 C0.34 5 -0.32 5 -1 5 C-1.33 5.99 -1.66 6.98 -2 8 C-2.66 6.02 -3.32 4.04 -4 2 C-3.01 2.33 -2.02 2.66 -1 3 C-0.67 2.01 -0.34 1.02 0 0 Z " fill="#3FCDD3" transform="translate(205,91)"/>
<path d="M0 0 C0.33 0.66 0.66 1.32 1 2 C1.99 2.33 2.98 2.66 4 3 C3.01 3 2.02 3 1 3 C1 6.63 1 10.26 1 14 C0.67 14 0.34 14 0 14 C0 10.37 0 6.74 0 3 C-0.66 2.67 -1.32 2.34 -2 2 C-1.34 1.34 -0.68 0.68 0 0 Z " fill="#8FE2E4" transform="translate(134,179)"/>
<path d="M0 0 C2 1 2 1 4 4 C3.67 4.99 3.34 5.98 3 7 C2.01 7 1.02 7 0 7 C-0.38133299 5.0085944 -0.71325582 3.00720923 -1 1 C-0.67 0.67 -0.34 0.34 0 0 Z " fill="#00C3C9" transform="translate(36,114)"/>
<path d="M0 0 C0.61875 0.350625 1.2375 0.70125 1.875 1.0625 C2.57625 1.371875 3.2775 1.68125 4 2 C4.66 1.67 5.32 1.34 6 1 C4.84826645 3.46800047 3.95216435 5.04783565 2 7 C2 6.01 2 5.02 2 4 C1.34 4 0.68 4 0 4 C0 2.68 0 1.36 0 0 Z " fill="#51D0DB" transform="translate(51,78)"/>
<path d="M0 0 C3.45925163 1.2491742 6.14693203 2.67527795 9 5 C8.01 5.33 7.02 5.66 6 6 C6 5.34 6 4.68 6 4 C5.34 4 4.68 4 4 4 C3.67 4.66 3.34 5.32 3 6 C2.01 4.02 1.02 2.04 0 0 Z " fill="#8AE1E2" transform="translate(106,151)"/>
<path d="M0 0 C1.65 0 3.3 0 5 0 C4.67 1.98 4.34 3.96 4 6 C2.62437146 4.71034824 1.29233607 3.37310707 0 2 C0 1.34 0 0.68 0 0 Z " fill="#43D0D9" transform="translate(171,143)"/>
<path d="M0 0 C0.66 0.33 1.32 0.66 2 1 C2 3.64 2 6.28 2 9 C1.34 9 0.68 9 0 9 C-0.87890625 2.84765625 -0.87890625 2.84765625 -1 1 C-0.67 0.67 -0.34 0.34 0 0 Z " fill="#00C2C6" transform="translate(189,124)"/>
<path d="M0 0 C0.99 0 1.98 0 3 0 C3.6875 1.8125 3.6875 1.8125 4 4 C2.5625 5.75 2.5625 5.75 1 7 C0.34 6.67 -0.32 6.34 -1 6 C-1 2 -1 2 0 0 Z " fill="#50D3D4" transform="translate(69,60)"/>
<path d="M0 0 C2.125 0.375 2.125 0.375 4 1 C3.67 2.65 3.34 4.3 3 6 C1.35 4.68 -0.3 3.36 -2 2 C-1.34 1.34 -0.68 0.68 0 0 Z " fill="#5AD4D8" transform="translate(166,32)"/>
<path d="M0 0 C0.99 0.33 1.98 0.66 3 1 C3 1.66 3 2.32 3 3 C1.35 3.33 -0.3 3.66 -2 4 C-2 5.65 -2 7.3 -2 9 C-2.33 9 -2.66 9 -3 9 C-3.36923077 3.46153846 -3.36923077 3.46153846 -1.5 1.125 C-1.005 0.75375 -0.51 0.3825 0 0 Z " fill="#74DADD" transform="translate(76,163)"/>
<path d="M0 0 C2.0625 0.4375 2.0625 0.4375 4 1 C4 1.99 4 2.98 4 4 C2.68 4.33 1.36 4.66 0 5 C-0.5625 3.0625 -0.5625 3.0625 -1 1 C-0.67 0.67 -0.34 0.34 0 0 Z " fill="#00C0C8" transform="translate(78,35)"/>
<path d="M0 0 C0.99 0.99 1.98 1.98 3 3 C1.68 4.32 0.36 5.64 -1 7 C-1.33 5.68 -1.66 4.36 -2 3 C-1.34 3 -0.68 3 0 3 C0 2.01 0 1.02 0 0 Z " fill="#00C0C9" transform="translate(22,113)"/>
<path d="M0 0 C-1.5625 1.5625 -1.5625 1.5625 -4 3 C-7.75 2.6875 -7.75 2.6875 -11 2 C-11 1.67 -11 1.34 -11 1 C-7.26562152 0.12132271 -3.83225427 -0.08912219 0 0 Z " fill="#A3E8EB" transform="translate(223,112)"/>
<path d="M0 0 C0 2 0 4 0 6 C-1.98 6.99 -1.98 6.99 -4 8 C-4.25 5.6875 -4.25 5.6875 -4 3 C-2 1.1875 -2 1.1875 0 0 Z " fill="#00BCC6" transform="translate(57,49)"/>
<path d="M0 0 C1.98 0.495 1.98 0.495 4 1 C4 1.99 4 2.98 4 4 C2.68 4.33 1.36 4.66 0 5 C-0.33 4.34 -0.66 3.68 -1 3 C-0.34 3 0.32 3 1 3 C0.67 2.01 0.34 1.02 0 0 Z " fill="#05C1D0" transform="translate(163,35)"/>
<path d="" fill="#FFFFFF" transform="translate(0,0)"/>
<path d="" fill="#FFFFFF" transform="translate(0,0)"/>
<path d="" fill="#FFFFFF" transform="translate(0,0)"/>
<path d="" fill="#FFFFFF" transform="translate(0,0)"/>
<path d="" fill="#FFFFFF" transform="translate(0,0)"/>
<path d="" fill="#FFFFFF" transform="translate(0,0)"/>
<path d="" fill="#FFFFFF" transform="translate(0,0)"/>
<path d="" fill="#FFFFFF" transform="translate(0,0)"/>
<path d="" fill="#FFFFFF" transform="translate(0,0)"/>
<path d="" fill="#FFFFFF" transform="translate(0,0)"/>
<path d="" fill="#FFFFFF" transform="translate(0,0)"/>
<path d="" fill="#FFFFFF" transform="translate(0,0)"/>
<path d="" fill="#FFFFFF" transform="translate(0,0)"/>
<path d="" fill="#FFFFFF" transform="translate(0,0)"/>
<path d="" fill="#FFFFFF" transform="translate(0,0)"/>
</svg>
