<?xml version="1.0" encoding="UTF-8"?>
<svg version="1.1" xmlns="http://www.w3.org/2000/svg" width="862" height="570">
<path d="M0 0 C284.46 0 568.92 0 862 0 C862 188.1 862 376.2 862 570 C577.54 570 293.08 570 0 570 C0 381.9 0 193.8 0 0 Z " fill="#58636D" transform="translate(0,0)"/>
<path d="M0 0 C1.1451709 0.00491455 2.2903418 0.0098291 3.47021484 0.01489258 C11.48259856 0.12628676 18.41637479 0.82725878 26.0625 3.3125 C27.30386719 3.6528125 28.54523438 3.993125 29.82421875 4.34375 C49.10673635 9.73506591 64.52942737 19.60346757 79.0625 33.3125 C79.68898438 33.88613281 80.31546875 34.45976562 80.9609375 35.05078125 C97.45250486 50.68419012 108.1048686 73.47976811 110.73828125 95.90625 C110.931293 98.31989636 110.931293 98.31989636 112.0625 100.3125 C114.13044488 122.48086913 109.77386832 143.45652437 100.0625 163.3125 C99.53269531 164.40433594 99.00289062 165.49617187 98.45703125 166.62109375 C93.21179206 176.76001454 85.77550775 184.9869068 78.0625 193.3125 C77.53398437 193.91835938 77.00546875 194.52421875 76.4609375 195.1484375 C65.78302253 206.81200616 50.11037231 214.09682784 35.625 219.6875 C34.95025635 219.95079102 34.2755127 220.21408203 33.58032227 220.48535156 C29.95594886 221.83298546 26.93534898 222.62590974 23.0625 222.3125 C23.3925 220.3325 23.7225 218.3525 24.0625 216.3125 C23.53140625 216.00957031 23.0003125 215.70664062 22.453125 215.39453125 C16.99827597 212.15944743 13.3201482 209.33085569 10.8125 203.3125 C10.0625 200.3125 10.0625 200.3125 10.0625 195.3125 C3.1325 195.6425 -3.7975 195.9725 -10.9375 196.3125 C-11.2675 198.6225 -11.5975 200.9325 -11.9375 203.3125 C-14.16035147 208.03334417 -16.77083126 211.57211407 -21.1875 214.375 C-23.9375 215.3125 -23.9375 215.3125 -25.9375 215.3125 C-25.4425 218.7775 -25.4425 218.7775 -24.9375 222.3125 C-51.99367164 218.20575966 -76.19665986 200.83653974 -92.328125 179.13671875 C-96.54989591 173.15692214 -99.85922175 166.67067792 -103.05957031 160.10253906 C-103.7589325 158.67658701 -104.49455691 157.26843525 -105.2421875 155.8671875 C-116.85071797 132.92009239 -115.61499766 100.39717969 -107.88623047 76.71777344 C-97.49325038 46.43880259 -75.12720772 23.46053302 -46.6875 9.44140625 C-31.98939812 2.59970401 -16.12588923 -0.0823602 0 0 Z " fill="#59646E" transform="translate(420.9375,112.6875)"/>
<path d="M0 0 C1.1451709 0.00491455 2.2903418 0.0098291 3.47021484 0.01489258 C11.48259856 0.12628676 18.41637479 0.82725878 26.0625 3.3125 C27.30386719 3.6528125 28.54523438 3.993125 29.82421875 4.34375 C49.10673635 9.73506591 64.52942737 19.60346757 79.0625 33.3125 C79.68898438 33.88613281 80.31546875 34.45976562 80.9609375 35.05078125 C97.45250486 50.68419012 108.1048686 73.47976811 110.73828125 95.90625 C110.931293 98.31989636 110.931293 98.31989636 112.0625 100.3125 C114.13044488 122.48086913 109.77386832 143.45652437 100.0625 163.3125 C99.53269531 164.40433594 99.00289062 165.49617187 98.45703125 166.62109375 C93.21179206 176.76001454 85.77550775 184.9869068 78.0625 193.3125 C77.53398437 193.91835938 77.00546875 194.52421875 76.4609375 195.1484375 C65.78302253 206.81200616 50.11037231 214.09682784 35.625 219.6875 C34.95025635 219.95079102 34.2755127 220.21408203 33.58032227 220.48535156 C29.95594886 221.83298546 26.93534898 222.62590974 23.0625 222.3125 C23.3925 220.3325 23.7225 218.3525 24.0625 216.3125 C23.53140625 216.00957031 23.0003125 215.70664062 22.453125 215.39453125 C16.99827597 212.15944743 13.3201482 209.33085569 10.8125 203.3125 C10.0625 200.3125 10.0625 200.3125 10.0625 195.3125 C3.1325 195.6425 -3.7975 195.9725 -10.9375 196.3125 C-11.2675 198.6225 -11.5975 200.9325 -11.9375 203.3125 C-14.16035147 208.03334417 -16.77083126 211.57211407 -21.1875 214.375 C-23.9375 215.3125 -23.9375 215.3125 -25.9375 215.3125 C-25.4425 218.7775 -25.4425 218.7775 -24.9375 222.3125 C-51.99367164 218.20575966 -76.19665986 200.83653974 -92.328125 179.13671875 C-96.54989591 173.15692214 -99.85922175 166.67067792 -103.05957031 160.10253906 C-103.7589325 158.67658701 -104.49455691 157.26843525 -105.2421875 155.8671875 C-116.85071797 132.92009239 -115.61499766 100.39717969 -107.88623047 76.71777344 C-97.49325038 46.43880259 -75.12720772 23.46053302 -46.6875 9.44140625 C-31.98939812 2.59970401 -16.12588923 -0.0823602 0 0 Z M-73.9375 37.3125 C-74.68773437 37.98796875 -75.43796875 38.6634375 -76.2109375 39.359375 C-95.66183915 57.51354987 -104.55947977 83.32239757 -105.9375 109.3125 C-106.78780011 136.99966926 -97.22464585 163.69634474 -78.19921875 183.94921875 C-77.45285156 184.72910156 -76.70648438 185.50898438 -75.9375 186.3125 C-75.26332031 187.06144531 -74.58914063 187.81039062 -73.89453125 188.58203125 C-64.32137508 198.83770137 -51.94531194 206.2413637 -38.9375 211.3125 C-38.12667969 211.64765625 -37.31585938 211.9828125 -36.48046875 212.328125 C-32.87423526 213.51546632 -30.8485854 213.67133158 -27.26953125 212.26171875 C-22.51802787 209.6082818 -19.28754816 207.33698947 -16.9375 202.3125 C-16.56983702 199.98432915 -16.23274342 197.65095823 -15.9375 195.3125 C-17.58733887 195.29848145 -17.58733887 195.29848145 -19.27050781 195.28417969 C-23.35604166 195.24427063 -27.44082319 195.17850996 -31.52587891 195.10498047 C-33.29303311 195.07677603 -35.06031334 195.05555882 -36.82763672 195.04150391 C-39.37012222 195.02006642 -41.91109338 194.97341497 -44.453125 194.921875 C-45.24180969 194.92064636 -46.03049438 194.91941772 -46.84307861 194.91815186 C-50.39926297 194.82345054 -52.52065836 194.62508999 -55.40527344 192.46191406 C-57.58886212 189.3987664 -58.06390896 186.87208384 -58.14282227 183.20825195 C-58.1727401 181.9773156 -58.1727401 181.9773156 -58.20326233 180.72151184 C-58.21997482 179.84017075 -58.23668732 178.95882965 -58.25390625 178.05078125 C-58.27468735 177.14498825 -58.29546844 176.23919525 -58.31687927 175.30595398 C-58.38226558 172.41237984 -58.44120904 169.51871493 -58.5 166.625 C-58.5431956 164.66340207 -58.58681023 162.70181332 -58.63085938 160.74023438 C-58.73793582 155.93108261 -58.83923414 151.12183954 -58.9375 146.3125 C-56.9575 146.6425 -54.9775 146.9725 -52.9375 147.3125 C-52.9375 156.2225 -52.9375 165.1325 -52.9375 174.3125 C-18.2875 174.3125 16.3625 174.3125 52.0625 174.3125 C52.10375 164.474375 52.145 154.63625 52.1875 144.5 C52.20570801 141.39489014 52.22391602 138.28978027 52.24267578 135.09057617 C52.24851544 132.63720879 52.25361224 130.18383948 52.2578125 127.73046875 C52.26804443 126.45030884 52.27827637 125.17014893 52.28881836 123.85119629 C52.28906006 122.63339478 52.28930176 121.41559326 52.28955078 120.16088867 C52.293992 119.10165695 52.29843323 118.04242523 52.30300903 116.95109558 C52.25290108 114.08147998 52.25290108 114.08147998 50.0625 111.3125 C47.43747899 110.8730531 47.43747899 110.8730531 44.32763672 110.97192383 C43.12654266 110.97215042 41.92544861 110.97237701 40.68795776 110.97261047 C38.73480148 110.99583626 38.73480148 110.99583626 36.7421875 111.01953125 C35.39983595 111.02512584 34.05747827 111.02939659 32.71511841 111.03239441 C29.18039059 111.04385415 25.64603202 111.07333041 22.1114502 111.10650635 C18.50534053 111.13718329 14.89917126 111.15089462 11.29296875 111.16601562 C4.21599468 111.19819948 -2.86072857 111.24940906 -9.9375 111.3125 C-9.9375 109.6625 -9.9375 108.0125 -9.9375 106.3125 C-2.33104537 106.39698869 5.27521901 106.49190506 12.88137341 106.60002708 C16.41347027 106.64991068 19.94553839 106.69624107 23.4777832 106.734375 C27.54136761 106.77840254 31.60459472 106.83802107 35.66796875 106.8984375 C36.9327153 106.90998871 38.19746185 106.92153992 39.50053406 106.93344116 C40.68138077 106.95331085 41.86222748 106.97318054 43.07885742 106.99365234 C44.11588303 107.00697601 45.15290863 107.02029968 46.22135925 107.0340271 C49.23304853 107.32921622 51.37931388 107.92077101 54.0625 109.3125 C56.4803556 112.9392834 56.33839072 115.57727065 56.30541992 119.765625 C56.30731827 120.52202271 56.30921661 121.27842041 56.31117249 122.05773926 C56.31487884 124.55943143 56.30417787 127.0608336 56.29296875 129.5625 C56.29177671 131.29980434 56.29132384 133.03710933 56.2915802 134.77441406 C56.29001556 138.41605665 56.28172752 142.0576009 56.26831055 145.69921875 C56.25132078 150.37008309 56.24749624 155.04083933 56.24825573 159.71173096 C56.24798396 163.29932693 56.24250155 166.88689921 56.23525429 170.4744873 C56.23206935 172.19689759 56.23010062 173.91931056 56.22936058 175.64172363 C56.22719518 178.04765404 56.21844655 180.45346929 56.20776367 182.859375 C56.20821686 183.57323364 56.20867004 184.28709229 56.20913696 185.02258301 C56.18936133 188.06471493 56.0327961 190.4016117 55.0625 193.3125 C50.38187189 194.21212825 45.79209146 194.51745624 41.0390625 194.62890625 C40.29288666 194.64968735 39.54671082 194.67046844 38.77792358 194.69187927 C36.41453492 194.7568123 34.05104336 194.81599571 31.6875 194.875 C30.07681265 194.91823884 28.46613537 194.96185477 26.85546875 195.00585938 C22.92458229 195.11243526 18.99359323 195.21385792 15.0625 195.3125 C15.84795348 201.701862 16.85950543 205.65205349 21.9765625 209.90234375 C25.034281 211.93902198 27.57071045 213.36438833 31.30859375 213.234375 C34.05829419 212.51101367 36.47527521 211.49917377 39.0625 210.3125 C39.66545898 210.04179687 40.26841797 209.77109375 40.88964844 209.4921875 C65.22074728 198.43805864 83.00827666 181.03956306 95.0625 157.3125 C95.5678125 156.33925781 96.073125 155.36601562 96.59375 154.36328125 C107.28014356 131.52437306 106.99094779 101.68615049 99.31494141 78.00634766 C97.57804593 73.25840687 95.44910682 68.76512467 93.0625 64.3125 C92.16724609 62.63994141 92.16724609 62.63994141 91.25390625 60.93359375 C75.60155693 33.89180106 50.84628847 17.3595731 21.0625 9.3125 C16.89214898 8.4974301 12.94976255 8.18413092 8.703125 8.1796875 C7.50429688 8.17839844 6.30546875 8.17710938 5.0703125 8.17578125 C3.83023438 8.17964844 2.59015625 8.18351562 1.3125 8.1875 C0.08789062 8.18363281 -1.13671875 8.17976563 -2.3984375 8.17578125 C-30.25183185 8.20560287 -53.75773082 17.98724874 -73.9375 37.3125 Z " fill="#EFEFF0" transform="translate(420.9375,112.6875)"/>
<path d="M0 0 C4.87442869 2.54610877 8.40841226 5.97325174 10.51855469 11.09179688 C11.6430187 16.35205401 11.60324821 21.49839078 11.36621094 26.84570312 C11.25288521 29.10206899 11.25288521 29.10206899 11.51855469 31.09179688 C13.32946583 33.24771931 13.32946583 33.24771931 15.51855469 34.09179688 C14.36682114 36.55979734 13.47071903 38.13963253 11.51855469 40.09179688 C11.54161175 42.20046987 11.57262063 44.30951243 11.65380859 46.41674805 C11.79186411 53.15501849 11.46476077 59.26855539 7.17407227 64.72119141 C0.63701606 71.37607938 -6.90809677 72.37923682 -15.98144531 72.59179688 C-25.05901241 72.37913799 -32.6017351 71.37395972 -39.14135742 64.71679688 C-43.93240111 58.6316057 -43.67813384 51.63258975 -43.32910156 44.21679688 C-43.23421691 40.83979965 -43.28569547 40.34309217 -45.47753906 37.52929688 C-46.13882813 37.05492187 -46.80011719 36.58054687 -47.48144531 36.09179688 C-45.73144531 32.21679688 -45.73144531 32.21679688 -43.48144531 31.09179688 C-43.56007812 29.78726562 -43.63871094 28.48273438 -43.71972656 27.13867188 C-43.93920695 19.44065512 -44.08296536 11.69658175 -39.13256836 5.38769531 C-29.56074485 -4.30815918 -12.21821335 -4.47183723 0 0 Z " fill="#F0F1F1" transform="translate(294.4814453125,383.908203125)"/>
<path d="M0 0 C4.9693229 -0.25424443 9.91579652 -0.47229163 14.88647461 -0.60424805 C16.57182513 -0.65924896 18.25665827 -0.73408758 19.94018555 -0.82983398 C33.94999305 -1.6060811 33.94999305 -1.6060811 39.09814453 2.42724609 C41.34584452 5.1856437 43.20280352 7.93538955 45 11 C45.66 11.66 46.32 12.32 47 13 C48.40337569 25.34970605 48.40337569 25.34970605 45.84375 30.18359375 C44.61058559 31.50239458 43.30984476 32.75732676 42 34 C41.75225614 36.17576488 41.75225614 36.17576488 43 38 C43.66515625 38.52078125 44.3303125 39.0415625 45.015625 39.578125 C47.90228505 43.10121404 47.80565731 46.17998619 47.8125 50.625 C47.81914673 51.82962891 47.81914673 51.82962891 47.82592773 53.05859375 C47.61407183 58.65384934 46.46178888 61.76542195 42.5625 66 C41.06020238 67.35418377 39.54343407 68.69289515 38 70 C37.67 70.66 37.34 71.32 37 72 C24.79 72 12.58 72 0 72 C-0.25 56.75 -0.25 56.75 -0.29785156 51.95605469 C-0.3284668 50.70727539 -0.35908203 49.45849609 -0.390625 48.171875 C-0.41157227 46.8940918 -0.43251953 45.61630859 -0.45410156 44.29980469 C-1.07868257 40.52438567 -2.04663675 39.33593539 -5 37 C-3.25 33.125 -3.25 33.125 -1 32 C-0.67 21.44 -0.34 10.88 0 0 Z " fill="#F1F1F2" transform="translate(654,383)"/>
<path d="M0 0 C3.96 0 7.92 0 12 0 C14.4311899 6.19427676 16.35121441 12.43617122 18.13671875 18.84375 C18.42102249 19.85344849 18.70532623 20.86314697 18.99824524 21.90344238 C19.89790543 25.10139453 20.79277456 28.30066412 21.6875 31.5 C22.29981317 33.67977658 22.91244018 35.85946503 23.52539062 38.0390625 C25.02055887 43.35836092 26.51180492 48.67874673 28 54 C29.94494472 49.66156607 30.9061395 45.22202606 31.83984375 40.5859375 C32.09127892 39.37050766 32.09127892 39.37050766 32.34779358 38.13052368 C32.88206439 35.54622554 33.41035981 32.96076133 33.9375 30.375 C38.11471765 9.93115993 38.11471765 9.93115993 41 0 C44.96 0 48.92 0 53 0 C55.86066818 11.06603301 58.23253467 22.21846834 60.59594727 33.3984375 C61.11440561 35.8469911 61.63705626 38.29462198 62.16015625 40.7421875 C62.31541275 41.48290497 62.47066925 42.22362244 62.63063049 42.98678589 C63.51108188 47.09575562 64.58953615 51.04136299 66 55 C66.17015625 54.35901367 66.3403125 53.71802734 66.515625 53.05761719 C70.03625365 39.82248796 73.63336758 26.61173311 77.375 13.4375 C77.72046875 12.21321289 78.0659375 10.98892578 78.421875 9.72753906 C78.74414062 8.59928711 79.06640625 7.47103516 79.3984375 6.30859375 C79.68380371 5.30626709 79.96916992 4.30394043 80.26318359 3.27124023 C81 1 81 1 82 0 C84.01964199 -0.07244053 86.04167124 -0.08377188 88.0625 -0.0625 C89.16722656 -0.05347656 90.27195312 -0.04445313 91.41015625 -0.03515625 C92.26480469 -0.02355469 93.11945313 -0.01195312 94 0 C93.04388558 3.37563258 92.08471099 6.75038834 91.125 10.125 C90.85558594 11.07632812 90.58617187 12.02765625 90.30859375 13.0078125 C88.96938275 17.71138286 87.54888715 22.36064461 86 27 C85.45551118 30.72067362 85.77322064 31.68109153 88 34.8125 C88.99 35.8953125 88.99 35.8953125 90 37 C83.25 41 83.25 41 81 41 C80.85304688 41.64582031 80.70609375 42.29164063 80.5546875 42.95703125 C78.21179949 52.79985385 75.11018983 62.37753568 72 72 C67.71 72 63.42 72 59 72 C57.11091921 64.19427573 55.22464095 56.38790029 53.34507751 48.57987976 C52.44980899 44.86193987 51.54929958 41.1453254 50.64453125 37.4296875 C50.28359339 35.9323545 49.92289001 34.43496495 49.5625 32.9375 C49.25441406 31.66777344 48.94632813 30.39804687 48.62890625 29.08984375 C48 26 48 26 48 22 C47.34 22 46.68 22 46 22 C45.8664209 23.00973877 45.7328418 24.01947754 45.59521484 25.05981445 C45.03431795 28.77282308 44.30694729 32.38186241 43.4765625 36.04296875 C43.25629898 37.01753777 43.25629898 37.01753777 43.03158569 38.01179504 C42.72191462 39.37933653 42.41091189 40.74657709 42.09863281 42.11352539 C41.630326 44.16417817 41.16636379 46.21577525 40.703125 48.26757812 C38.90442281 56.20507916 37.00439697 64.11152971 35 72 C30.71 72 26.42 72 22 72 C20.7146509 67.90769763 19.43299892 63.81426166 18.15478516 59.71972656 C17.71928126 58.32650381 17.28276237 56.93359792 16.84521484 55.54101562 C16.21706337 53.54118643 15.59255136 51.54025223 14.96875 49.5390625 C14.59169922 48.33459473 14.21464844 47.13012695 13.82617188 45.88916016 C13 43 13 43 13 41 C12.071875 40.731875 11.14375 40.46375 10.1875 40.1875 C7.23759634 39.08851629 5.94384814 38.37581439 4 36 C4.680625 35.505 5.36125 35.01 6.0625 34.5 C8.36931958 32.08150049 8.36931958 32.08150049 7.84375 28.625 C6.94507029 22.77659733 5.14485247 17.15285809 3.4375 11.5 C2.9434668 9.83710938 2.9434668 9.83710938 2.43945312 8.140625 C1.63191044 5.42540902 0.81672578 2.71246788 0 0 Z " fill="#F2F2F2" transform="translate(139,383)"/>
<path d="M0 0 C4.96171338 -0.27392673 9.9189516 -0.47237539 14.88647461 -0.60424805 C16.57182513 -0.65924896 18.25665827 -0.73408758 19.94018555 -0.82983398 C33.94999305 -1.6060811 33.94999305 -1.6060811 39.09814453 2.42724609 C41.34584452 5.1856437 43.20280352 7.93538955 45 11 C45.66 11.66 46.32 12.32 47 13 C48.08645086 19.56017275 48.44589795 25.51840855 45.05859375 31.33203125 C42.81319971 34.0243416 40.47300841 36.51806376 38 39 C37.34 39.99 36.68 40.98 36 42 C36.47626831 42.93682617 36.47626831 42.93682617 36.9621582 43.89257812 C38.41659856 46.75954718 39.86458423 49.62973065 41.3125 52.5 C41.81201172 53.48226562 42.31152344 54.46453125 42.82617188 55.4765625 C45.5570007 60.90205022 47.99913749 66.26373888 50 72 C46.37 72 42.74 72 39 72 C37.89871205 69.9171758 36.79798679 67.83405233 35.69995117 65.74951172 C34.77259149 63.99531208 33.83911808 62.24433129 32.8996582 60.49658203 C30.50770109 56.0181133 28.45709138 51.64035631 26.6875 46.875 C25.800625 45.59625 24.91375 44.3175 24 43 C19.71 42.67 15.42 42.34 11 42 C11 51.9 11 61.8 11 72 C7.37 72 3.74 72 0 72 C-0.01401855 70.62279785 -0.01401855 70.62279785 -0.02832031 69.21777344 C-0.07239931 65.80294722 -0.13403732 62.38936892 -0.20751953 58.97509766 C-0.23570088 57.49897804 -0.25692966 56.02270831 -0.27099609 54.54638672 C-0.29246698 52.42076943 -0.33913043 50.29695121 -0.390625 48.171875 C-0.41157227 46.8940918 -0.43251953 45.61630859 -0.45410156 44.29980469 C-1.07868257 40.52438567 -2.04663675 39.33593539 -5 37 C-4 34 -4 34 -1 32 C-0.66185252 29.52508886 -0.51127661 27.28648312 -0.48828125 24.8046875 C-0.47033005 24.09724396 -0.45237885 23.38980042 -0.43388367 22.66091919 C-0.37965558 20.39900697 -0.34584684 18.13730716 -0.3125 15.875 C-0.27933774 14.34241827 -0.2448491 12.80986462 -0.20898438 11.27734375 C-0.12392273 7.51838221 -0.05717247 3.759485 0 0 Z " fill="#F0F1F1" transform="translate(334,383)"/>
<path d="M0 0 C1.0725 0.00515625 2.145 0.0103125 3.25 0.015625 C4.85875 0.00789062 4.85875 0.00789062 6.5 0 C9.25 0.265625 9.25 0.265625 11.25 2.265625 C11.375 4.890625 11.375 4.890625 11.25 7.265625 C11.806875 6.935625 12.36375 6.605625 12.9375 6.265625 C15.8493928 5.00642811 17.10669888 4.60772477 20.25 5.265625 C23.15467663 7.21989619 25.37935568 9.29590776 27.25 12.265625 C27.55143732 15.30644009 27.04290951 17.25256885 26.25 20.265625 C27.054375 20.575 27.85875 20.884375 28.6875 21.203125 C31.25 22.265625 31.25 22.265625 32.25 23.265625 C32.32244053 25.28526699 32.33377188 27.30729624 32.3125 29.328125 C32.30347656 30.43285156 32.29445313 31.53757813 32.28515625 32.67578125 C32.27355469 33.53042969 32.26195312 34.38507813 32.25 35.265625 C29.94 35.925625 27.63 36.585625 25.25 37.265625 C25.745 38.1009375 25.745 38.1009375 26.25 38.953125 C27.50919689 41.8650178 27.90790023 43.12232388 27.25 46.265625 C25.23396417 49.03484275 23.05596925 51.29386282 20.25 53.265625 C17.5 53.265625 17.5 53.265625 15.25 52.265625 C14.26 51.935625 13.27 51.605625 12.25 51.265625 C11.940625 52.235 11.63125 53.204375 11.3125 54.203125 C10.25 57.265625 10.25 57.265625 9.25 58.265625 C7.27486333 58.41688731 5.29321865 58.48736266 3.3125 58.515625 C2.23097656 58.54140625 1.14945312 58.5671875 0.03515625 58.59375 C-0.88394531 58.48546875 -1.80304688 58.3771875 -2.75 58.265625 C-4.75 55.265625 -4.75 55.265625 -4.75 51.265625 C-5.471875 51.61625 -6.19375 51.966875 -6.9375 52.328125 C-10.25804231 53.43497244 -11.4945166 53.53605755 -14.75 52.265625 C-17.17290158 50.53979951 -19.12243387 48.76779072 -20.75 46.265625 C-20.6830485 42.85109838 -19.82420396 40.48823687 -18.75 37.265625 C-19.719375 37.12125 -20.68875 36.976875 -21.6875 36.828125 C-24.75 36.265625 -24.75 36.265625 -25.75 35.265625 C-25.9539085 33.31392939 -26.0638543 31.35199076 -26.125 29.390625 C-26.17398437 28.32070312 -26.22296875 27.25078125 -26.2734375 26.1484375 C-25.75 23.265625 -25.75 23.265625 -23.3515625 21.3828125 C-20.75 20.265625 -20.75 20.265625 -18.75 20.265625 C-19.100625 19.70875 -19.45125 19.151875 -19.8125 18.578125 C-21.05076574 15.52373618 -20.9264067 14.3536926 -19.75 11.265625 C-18.0269183 8.84096281 -16.25181981 6.89296613 -13.75 5.265625 C-10.33547338 5.3325765 -7.97261187 6.19142104 -4.75 7.265625 C-4.79125 6.481875 -4.8325 5.698125 -4.875 4.890625 C-4.69540478 1.11912541 -3.71385686 0.35872481 0 0 Z " fill="#F0F1F1" transform="translate(372.75,196.734375)"/>
<path d="M0 0 C3.3 0 6.6 0 10 0 C10 10.23 10 20.46 10 31 C19.9 31 29.8 31 40 31 C40 20.77 40 10.54 40 0 C43.63 0 47.26 0 51 0 C51.01401855 1.43049683 51.01401855 1.43049683 51.02832031 2.88989258 C51.06820433 6.42942962 51.13395659 9.96809593 51.20751953 13.50708008 C51.23573878 15.03854178 51.25694869 16.57014939 51.27099609 18.10180664 C51.29241426 20.30430849 51.33905138 22.50505459 51.390625 24.70703125 C51.39185364 25.39150833 51.39308228 26.07598541 51.39434814 26.78120422 C51.49645978 30.09766795 51.59177275 31.60825246 54.03808594 33.95581055 C55.0092334 34.47268433 55.0092334 34.47268433 56 35 C54.84826645 37.46800047 53.95216435 39.04783565 52 41 C51.62653332 44.20538403 51.62653332 44.20538403 51.5859375 47.9765625 C51.56657135 48.66181 51.5472052 49.3470575 51.5272522 50.05307007 C51.46743169 52.24358644 51.42106244 54.4341553 51.375 56.625 C51.33682237 58.10939802 51.29777076 59.59377384 51.2578125 61.078125 C51.16172916 64.71854685 51.07770718 68.35913436 51 72 C47.37 72 43.74 72 40 72 C40 61.77 40 51.54 40 41 C30.1 41 20.2 41 10 41 C10 51.23 10 61.46 10 72 C6.7 72 3.4 72 0 72 C-0.00410889 71.08186523 -0.00821777 70.16373047 -0.01245117 69.21777344 C-0.03946184 65.80276072 -0.08857183 62.3895399 -0.15258789 58.97509766 C-0.17574851 57.49897288 -0.19015915 56.02268331 -0.19555664 54.54638672 C-0.20486184 52.42050737 -0.2458746 50.29721232 -0.29296875 48.171875 C-0.3086792 46.8940918 -0.32438965 45.61630859 -0.34057617 44.29980469 C-1.16396024 40.17953108 -2.6159944 39.31050308 -6 37 C-6 36.34 -6 35.68 -6 35 C-5.18958252 34.44666992 -4.37916504 33.89333984 -3.54418945 33.32324219 C-0.69837626 31.18490599 -0.69837626 31.18490599 -0.34057617 27.70019531 C-0.32486572 26.42241211 -0.30915527 25.14462891 -0.29296875 23.828125 C-0.27784744 23.1457074 -0.26272614 22.46328979 -0.24714661 21.76019287 C-0.20430606 19.58979155 -0.19543661 17.42078177 -0.1875 15.25 C-0.16435237 13.77470268 -0.13898645 12.29943839 -0.11132812 10.82421875 C-0.04851626 7.21617268 -0.01614936 3.60859084 0 0 Z " fill="#F3F3F3" transform="translate(487,383)"/>
<path d="M0 0 C3.3 0 6.6 0 10 0 C9.99887207 1.6399292 9.99774414 3.2798584 9.99658203 4.96948242 C10.00025331 11.05463252 10.04304584 17.13898826 10.09765625 23.22387695 C10.1158233 25.85728847 10.12338351 28.49079542 10.12011719 31.12426758 C10.11726241 34.91042007 10.15255871 38.69459051 10.1953125 42.48046875 C10.18621857 43.65772018 10.17712463 44.83497162 10.16775513 46.04789734 C10.12664958 51.74237233 10.12664958 51.74237233 12.23748779 56.86157227 C14.96309168 59.29774581 17.67010856 60.63405221 21.3125 60.6640625 C22.46105469 60.67373047 22.46105469 60.67373047 23.6328125 60.68359375 C24.41398438 60.66425781 25.19515625 60.64492188 26 60.625 C26.78117188 60.64433594 27.56234375 60.66367187 28.3671875 60.68359375 C29.13289062 60.67714844 29.89859375 60.67070312 30.6875 60.6640625 C31.37199219 60.65842285 32.05648437 60.6527832 32.76171875 60.64697266 C36.40247341 59.59461665 38.91436895 58.13744745 41 55 C41.90161167 50.83446931 41.83750766 46.72918958 41.8046875 42.48046875 C41.81839386 41.26676102 41.83210022 40.05305328 41.84622192 38.80256653 C41.88357718 34.93050253 41.87980275 31.0597189 41.875 27.1875 C41.89312264 24.56052678 41.91392394 21.93357057 41.9375 19.30664062 C41.98940402 12.87087864 42.0044266 6.43595984 42 0 C45.3 0 48.6 0 52 0 C52.00410889 0.90766113 52.00821777 1.81532227 52.01245117 2.75048828 C52.03952653 6.13945626 52.08870578 9.52664113 52.15258789 12.91503906 C52.17569115 14.37749182 52.19014558 15.84010915 52.19555664 17.30273438 C52.20490398 19.41379424 52.24600821 21.52229366 52.29296875 23.6328125 C52.3086792 24.90012207 52.32438965 26.16743164 52.34057617 27.47314453 C53.19225191 32.02823808 54.81802226 33.70952058 58 37 C56.76830078 37.69029297 56.76830078 37.69029297 55.51171875 38.39453125 C52.71994755 41.29050542 52.66077112 41.66532816 52.64453125 45.44921875 C52.69151401 47.19557806 52.74791156 48.94170318 52.8125 50.6875 C52.80434295 59.79565947 52.80434295 59.79565947 49.83203125 64.24609375 C47.31726396 66.45604076 44.87030866 68.28515106 42 70 C41.01 70.66 40.02 71.32 39 72 C30.3743077 73.24208001 16.79802496 74.95981892 9.1640625 70.05859375 C6.78588613 67.8339633 4.90376266 65.63013595 3 63 C2.01 62.34 1.02 61.68 0 61 C-0.35302734 59.01635742 -0.35302734 59.01635742 -0.3359375 56.60546875 C-0.34882812 55.73212891 -0.36171875 54.85878906 -0.375 53.95898438 C-0.375 52.12303025 -0.36728744 50.28705865 -0.3515625 48.45117188 C-0.38587955 42.57744938 -0.38587955 42.57744938 -3.5390625 37.86328125 C-4.35117187 37.24839844 -5.16328125 36.63351562 -6 36 C-5.18958252 35.32493408 -4.37916504 34.64986816 -3.54418945 33.9543457 C-0.39128304 30.29315 -0.35188411 28.50261254 -0.29296875 23.73046875 C-0.27784744 23.04946609 -0.26272614 22.36846344 -0.24714661 21.66682434 C-0.20439922 19.50670937 -0.19544565 17.34799507 -0.1875 15.1875 C-0.16434511 13.71675998 -0.13897769 12.24605302 -0.11132812 10.77539062 C-0.0486084 7.18362029 -0.01616875 3.59231596 0 0 Z " fill="#F4F4F4" transform="translate(570,383)"/>
<path d="M0 0 C3.3 0 6.6 0 10 0 C10.33 10.89 10.66 21.78 11 33 C18.30846902 24.17194831 25.59987726 15.35006268 32.62231445 6.29248047 C34.33728803 4.08529792 36.02106853 1.97893147 38 0 C40.8203125 -0.1953125 40.8203125 -0.1953125 44.125 -0.125 C45.22070312 -0.10695313 46.31640625 -0.08890625 47.4453125 -0.0703125 C48.70988281 -0.03550781 48.70988281 -0.03550781 50 0 C45.9859203 5.44703383 41.81006436 10.72290139 37.5 15.9375 C32.99188597 21.43086487 28.75470744 26.95603977 25 33 C25.71542969 33.94617188 26.43085938 34.89234375 27.16796875 35.8671875 C32.86775698 43.4246988 38.50984723 51.02109369 44.0625 58.6875 C44.60994873 59.4407959 45.15739746 60.1940918 45.72143555 60.97021484 C48.31506536 64.56363732 50.80227202 68.14447029 53 72 C48.85135723 72.62229641 45.13695052 72.77920258 41 72 C38.01039231 69.75366494 36.20417174 66.95224651 34.203125 63.82080078 C32.75896151 61.63521407 31.2148806 59.53904391 29.65625 57.43359375 C27.31111239 54.25799966 24.96809144 51.08168509 22.66015625 47.87890625 C22.17168213 47.2041626 21.68320801 46.52941895 21.17993164 45.83422852 C20 44 20 44 19 41 C18.236875 41.763125 17.47375 42.52625 16.6875 43.3125 C14 46 14 46 12.36401367 47.33520508 C10.45928704 49.65994661 10.57056168 51.34566717 10.48828125 54.32421875 C10.45283203 55.35224609 10.41738281 56.38027344 10.38085938 57.43945312 C10.35830078 58.51130859 10.33574219 59.58316406 10.3125 60.6875 C10.27833984 61.77095703 10.24417969 62.85441406 10.20898438 63.97070312 C10.1264625 66.64676977 10.06155614 69.32336903 10 72 C6.7 72 3.4 72 0 72 C-0.00410889 71.08710205 -0.00821777 70.1742041 -0.01245117 69.23364258 C-0.03949402 65.83165222 -0.08863862 62.43144939 -0.15258789 59.0300293 C-0.17571993 57.56074053 -0.1901524 56.09128708 -0.19555664 54.62182617 C-0.20488279 52.50335655 -0.24594127 50.38745935 -0.29296875 48.26953125 C-0.3086792 46.99698486 -0.32438965 45.72443848 -0.34057617 44.41333008 C-1.15412568 40.20220987 -2.75695549 38.70140869 -6 36 C-5.18958252 35.32493408 -4.37916504 34.64986816 -3.54418945 33.9543457 C-0.39128304 30.29315 -0.35188411 28.50261254 -0.29296875 23.73046875 C-0.27784744 23.04946609 -0.26272614 22.36846344 -0.24714661 21.66682434 C-0.20439922 19.50670937 -0.19544565 17.34799507 -0.1875 15.1875 C-0.16434511 13.71675998 -0.13897769 12.24605302 -0.11132812 10.77539062 C-0.0486084 7.18362029 -0.01616875 3.59231596 0 0 Z " fill="#F3F3F4" transform="translate(408,383)"/>
<path d="M0 0 C0.81082031 -0.00644531 1.62164062 -0.01289063 2.45703125 -0.01953125 C3.70033203 0.00947266 3.70033203 0.00947266 4.96875 0.0390625 C5.79761719 0.01972656 6.62648438 0.00039063 7.48046875 -0.01953125 C8.69669922 -0.00986328 8.69669922 -0.00986328 9.9375 0 C10.66388672 0.00563965 11.39027344 0.0112793 12.13867188 0.01708984 C15.71039725 1.00881996 18.27469855 2.72194491 20.46875 5.6640625 C21.33218516 8.69131022 21.31127635 11.59380452 21.265625 14.7265625 C21.27423553 16.02992554 21.27423553 16.02992554 21.28302002 17.35961914 C21.28709272 19.19192114 21.27609194 21.02431093 21.25097656 22.85644531 C21.21883933 25.65628011 21.25068409 28.45034407 21.2890625 31.25 C21.28509746 33.03386687 21.27740971 34.81773015 21.265625 36.6015625 C21.28384308 37.85175171 21.28384308 37.85175171 21.3024292 39.12719727 C21.16739014 44.72721964 21.16739014 44.72721964 19.23901367 47.31307983 C16.3547983 49.89518567 13.79861217 51.29814742 9.9375 51.328125 C8.72126953 51.33779297 8.72126953 51.33779297 7.48046875 51.34765625 C6.65160156 51.32832031 5.82273437 51.30898438 4.96875 51.2890625 C4.13988281 51.30839844 3.31101562 51.32773437 2.45703125 51.34765625 C1.64621094 51.34121094 0.83539063 51.33476562 0 51.328125 C-0.72638672 51.32248535 -1.45277344 51.3168457 -2.20117188 51.31103516 C-5.77289725 50.31930504 -8.33719855 48.60618009 -10.53125 45.6640625 C-11.39468516 42.63681478 -11.37377635 39.73432048 -11.328125 36.6015625 C-11.33386536 35.73265381 -11.33960571 34.86374512 -11.34552002 33.96850586 C-11.34959272 32.13620386 -11.33859194 30.30381407 -11.31347656 28.47167969 C-11.28133933 25.67184489 -11.31318409 22.87778093 -11.3515625 20.078125 C-11.34759746 18.29425813 -11.33990971 16.51039485 -11.328125 14.7265625 C-11.34027039 13.89310303 -11.35241577 13.05964355 -11.3649292 12.20092773 C-11.22989014 6.60090536 -11.22989014 6.60090536 -9.30151367 4.01504517 C-6.4172983 1.43293933 -3.86111217 0.02997758 0 0 Z " fill="#535E68" transform="translate(273.53125,393.3359375)"/>
<path d="M0 0 C34.98 0 69.96 0 106 0 C106 3.3 106 6.6 106 10 C103.6257801 12.3742199 103.1681094 12.25067917 99.94532776 12.25396729 C98.67296265 12.26242676 98.67296265 12.26242676 97.37489319 12.27105713 C96.44237228 12.26700867 95.50985138 12.26296021 94.54907227 12.25878906 C93.56848846 12.2622937 92.58790466 12.26579834 91.5776062 12.26940918 C88.32380167 12.27823909 85.07021314 12.27237241 81.81640625 12.265625 C79.56200621 12.2669714 77.30760644 12.26891171 75.0532074 12.27142334 C70.32279706 12.2743764 65.59246214 12.27007149 60.86206055 12.26074219 C54.79100057 12.24935412 48.72011753 12.25590196 42.64906406 12.26788712 C37.99174155 12.27510635 33.33446114 12.27281737 28.67713737 12.26763153 C26.43837399 12.26629487 24.19960681 12.26794331 21.96084785 12.27259064 C18.83390269 12.27765612 15.70724589 12.26994485 12.58032227 12.25878906 C11.18457726 12.26486176 11.18457726 12.26486176 9.76063538 12.27105713 C8.90957214 12.26541748 8.05850891 12.25977783 7.18165588 12.25396729 C6.44221017 12.25321323 5.70276445 12.25245918 4.94091129 12.25168228 C3 12 3 12 0 10 C0 6.7 0 3.4 0 0 Z " fill="#5C6771" transform="translate(367,291)"/>
<path d="M0 0 C1.32 0 2.64 0 4 0 C4.66 1.98 5.32 3.96 6 6 C11.55493924 7.02703748 11.55493924 7.02703748 17 6 C19.58858285 9.88287427 18.64054323 11.51619742 18 16 C20.0072908 19.0109362 20.83884224 19.63016497 24 21 C24 22.32 24 23.64 24 25 C22.35 25.66 20.7 26.32 19 27 C17.97296252 32.55493924 17.97296252 32.55493924 19 38 C18.01 38.66 17.02 39.32 16 40 C15.01 39.34 14.02 38.68 13 38 C10.97080157 38.25723969 10.97080157 38.25723969 9 39 C7.515 39.495 7.515 39.495 6 40 C4.78130071 42.50447516 4.78130071 42.50447516 4 45 C2.68 45 1.36 45 0 45 C-0.0825 44.38125 -0.165 43.7625 -0.25 43.125 C-0.82561022 40.92085741 -0.82561022 40.92085741 -2.5625 39.6875 C-6.23618337 38.6513329 -9.24870119 39.37478353 -13 40 C-15.16614592 36.55965059 -14.8500833 34.87260168 -14 31 C-14.37722015 28.27497035 -14.37722015 28.27497035 -15 26 C-16.98 25.67 -18.96 25.34 -21 25 C-21 23.68 -21 22.36 -21 21 C-20.21625 20.7525 -19.4325 20.505 -18.625 20.25 C-15.9785387 19.21967938 -15.9785387 19.21967938 -14.625 17.3125 C-13.73767745 14.02940656 -14.36529575 11.30046211 -15 8 C-13.3125 6.9375 -13.3125 6.9375 -11 6 C-10.195625 6.185625 -9.39125 6.37125 -8.5625 6.5625 C-5.90564372 7.25578145 -5.90564372 7.25578145 -3.25 5.8125 C-0.86479234 4.20742544 -0.86479234 4.20742544 -0.1875 1.8125 C-0.0946875 0.9153125 -0.0946875 0.9153125 0 0 Z " fill="#5F6A73" transform="translate(374,203)"/>
<path d="M0 0 C2.875 -0.1875 2.875 -0.1875 6 0 C6.66 0.99 7.32 1.98 8 3 C9.65821773 3.37309899 11.32577014 3.70700977 13 4 C15.16549811 6.16549811 15.35076883 7.1248334 16 10 C16.33 10.33 16.66 10.66 17 11 C17.04092937 13.33297433 17.04241723 15.66705225 17 18 C16.01 18.33 15.02 18.66 14 19 C14.226875 19.598125 14.45375 20.19625 14.6875 20.8125 C15 23 15 23 13.875 24.75 C11.46145349 26.35903101 9.84326464 26.23053497 7 26 C6.67 26.99 6.34 27.98 6 29 C4.02 29 2.04 29 0 29 C-0.33 28.01 -0.66 27.02 -1 26 C-1.5775 26.226875 -2.155 26.45375 -2.75 26.6875 C-5 27 -5 27 -7.1875 25.875 C-9.3794024 23.60751476 -9.51745636 22.05610974 -10 19 C-10.66 18.67 -11.32 18.34 -12 18 C-12 16.02 -12 14.04 -12 12 C-10.68 11.67 -9.36 11.34 -8 11 C-8.226875 10.236875 -8.45375 9.47375 -8.6875 8.6875 C-9 6 -9 6 -7.875 4.1875 C-5.46186517 2.65918128 -3.80362763 2.77267884 -1 3 C-0.67 2.01 -0.34 1.02 0 0 Z " fill="#EBECEC" transform="translate(338,241)"/>
<path d="M0 0 C4.18459301 1.72841885 6.20718739 3.84822343 8 8 C8.56796579 13.20635305 7.88868756 16.6171637 5 21 C1.39537678 24.1805499 -2.12319564 24.56954504 -6.77734375 24.4296875 C-10.58350909 23.69387346 -12.35670706 21.77545759 -15 19 C-16.86233425 15.27533151 -16.57130829 11.05504687 -16 7 C-12.26977637 0.0267088 -7.27520611 -0.69347719 0 0 Z " fill="#F2F2F2" transform="translate(380,214)"/>
<path d="M0 0 C3.196875 -0.12375 6.39375 -0.2475 9.6875 -0.375 C10.68612061 -0.42962402 11.68474121 -0.48424805 12.71362305 -0.54052734 C19.06163327 -0.65949257 19.06163327 -0.65949257 21.73828125 1.22167969 C24.06742489 3.86525772 25.69918412 6.43916201 25.625 10 C25.63789063 10.61875 25.65078125 11.2375 25.6640625 11.875 C24.57474176 15.36082635 22.9667786 17.91492133 20 20 C16.52498825 20.72915845 13.21826944 20.56813124 9.6875 20.375 C4.8921875 20.189375 4.8921875 20.189375 0 20 C0 13.4 0 6.8 0 0 Z " fill="#55616A" transform="translate(345,394)"/>
<path d="M0 0 C3.39716777 -0.13516583 6.78894608 -0.23419231 10.1875 -0.3125 C11.14720703 -0.35439453 12.10691406 -0.39628906 13.09570312 -0.43945312 C20.22352946 -0.56277192 20.22352946 -0.56277192 24.13671875 2.2734375 C26.13630746 5.19946039 26.59139776 7.30107088 26.6640625 10.83984375 C25.58087384 14.36339276 24.01631685 16.92128826 21 19 C17.36764586 19.73176428 13.87385822 19.56810674 10.1875 19.375 C9.20845703 19.34792969 8.22941406 19.32085937 7.22070312 19.29296875 C4.81285287 19.22249508 2.40614037 19.11488203 0 19 C0 12.73 0 6.46 0 0 Z " fill="#5C6871" transform="translate(665,425)"/>
<path d="M0 0 C3.196875 -0.12375 6.39375 -0.2475 9.6875 -0.375 C10.68612061 -0.42962402 11.68474121 -0.48424805 12.71362305 -0.54052734 C19.07619851 -0.65976553 19.07619851 -0.65976553 21.73828125 1.24145508 C24.06054056 3.90334481 24.99342536 5.9638395 25.625 9.4375 C24.83744936 13.92653865 23.53502885 17.02253258 20 20 C16.51657919 20.85931823 13.24802384 20.66471858 9.6875 20.4375 C6.490625 20.293125 3.29375 20.14875 0 20 C0 13.4 0 6.8 0 0 Z " fill="#5D6871" transform="translate(665,394)"/>
<path d="M0 0 C0.66 0 1.32 0 2 0 C2.33 0.99 2.66 1.98 3 3 C4.98 3 6.96 3 9 3 C9 5.31 9 7.62 9 10 C9.99 10 10.98 10 12 10 C12 10.99 12 11.98 12 13 C11.01 13.66 10.02 14.32 9 15 C8.74969023 17.58380177 8.74969023 17.58380177 9 20 C8.21625 19.938125 7.4325 19.87625 6.625 19.8125 C5.325625 19.9053125 5.325625 19.9053125 4 20 C3.34 20.99 2.68 21.98 2 23 C1.34 23 0.68 23 0 23 C-0.45375 22.505 -0.9075 22.01 -1.375 21.5 C-3.12128967 19.54781326 -3.12128967 19.54781326 -7 20 C-7.12375 19.030625 -7.2475 18.06125 -7.375 17.0625 C-7.58125 16.051875 -7.7875 15.04125 -8 14 C-8.66 13.67 -9.32 13.34 -10 13 C-10 12.01 -10 11.02 -10 10 C-9.34 9.67 -8.68 9.34 -8 9 C-7.34227572 5.97065509 -7.34227572 5.97065509 -7 3 C-6.21625 3.061875 -5.4325 3.12375 -4.625 3.1875 C-3.75875 3.125625 -2.8925 3.06375 -2 3 C-1.34 2.01 -0.68 1.02 0 0 Z " fill="#667079" transform="translate(340,244)"/>
<path d="M0 0 C1.67542976 0.28604898 3.34385343 0.61781233 5 1 C5.495 3.475 5.495 3.475 6 6 C5.34 6 4.68 6 4 6 C4 6.66 4 7.32 4 8 C20.5 8 37 8 54 8 C54 8.33 54 8.66 54 9 C20.67 9 -12.66 9 -47 9 C-47 8.67 -47 8.34 -47 8 C-31.49 8 -15.98 8 0 8 C-0.495 4.535 -0.495 4.535 -1 1 C-0.67 0.67 -0.34 0.34 0 0 Z " fill="#7F888F" transform="translate(417,294)"/>
<path d="M0 0 C3.5625 0.3125 3.5625 0.3125 5.5625 1.375 C7.19628851 4.54046524 6.41517564 6.96270286 5.5625 10.3125 C2.32996204 12.46752531 1.31099077 12.78106135 -2.4375 12.3125 C-4.25 11.25 -4.25 11.25 -5.4375 9.3125 C-5.75 5.75 -5.75 5.75 -5.4375 2.3125 C-3.4375 0.3125 -3.4375 0.3125 0 0 Z " fill="#EBECEC" transform="translate(340.4375,249.6875)"/>
<path d="M0 0 C2 3 2 3 1.875 6.0625 C1 9 1 9 -0.75 10.4375 C-3.54237695 11.13559424 -5.26731609 10.86295281 -8 10 C-10 8 -10 8 -10.3125 5.0625 C-10 2 -10 2 -8.9375 0.0625 C-5.78433176 -1.66665678 -3.37491745 -0.8590699 0 0 Z " fill="#5F6B73" transform="translate(380,221)"/>
<path d="M0 0 C1.67542976 0.28604898 3.34385343 0.61781233 5 1 C5.33 2.65 5.66 4.3 6 6 C4.0085944 6.38133299 2.00720923 6.71325582 0 7 C-1 6 -1 6 -1.125 3.5 C-1 1 -1 1 0 0 Z " fill="#E8E9EA" transform="translate(417,294)"/>
<path d="M0 0 C1.67542976 0.28604898 3.34385343 0.61781233 5 1 C4.67 2.32 4.34 3.64 4 5 C2.68 5.33 1.36 5.66 0 6 C-0.38218767 4.34385343 -0.71395102 2.67542976 -1 1 C-0.67 0.67 -0.34 0.34 0 0 Z " fill="#68737B" transform="translate(339,253)"/>
</svg>
